<svg xmlns="http://www.w3.org/2000/svg" xmlns:xlink="http://www.w3.org/1999/xlink" width="1600" height="840" viewBox="0 0 1600 840"><rect width="1600" height="840" fill="#f7f7f4"/><text x="60" y="78" font-family="system-ui,-apple-system,'Segoe UI',Helvetica,Arial,sans-serif" font-size="40" font-weight="700" fill="#161616">shim — more logo concepts</text><text x="60" y="116" font-family="system-ui,-apple-system,'Segoe UI',Helvetica,Arial,sans-serif" font-size="20" fill="#6b6b6b">Concepts for review — pick a direction (or tell me what you like in each).</text><rect x="60" y="150" width="474.667" height="630" rx="18" fill="#fff" stroke="#161616" stroke-width="2"/><g><svg xmlns="http://www.w3.org/2000/svg" viewBox="0 0 256 256" x="90" y="190" width="414.667" height="300" preserveAspectRatio="xMidYMid meet">
  <!-- Top Block -->
  <polygon points="128,32 176,60 128,88 80,60" fill="#000000"/>
  <polygon points="80,60 128,88 128,144 80,116" fill="#000000"/>
  
  <!-- Middle Block connecting down -->
  <polygon points="128,88 176,116 176,172 128,144" fill="#000000"/>
  
  <!-- Bottom Block -->
  <polygon points="80,144 128,172 128,228 80,200" fill="#000000"/>
  <polygon points="128,144 176,172 128,200 80,172" fill="#000000"/>
</svg>
</g><g><svg xmlns="http://www.w3.org/2000/svg" viewBox="0 0 256 256" x="90" y="516" width="64" height="64" preserveAspectRatio="xMidYMid meet">
  <!-- Top Block -->
  <polygon points="128,32 176,60 128,88 80,60" fill="#000000"/>
  <polygon points="80,60 128,88 128,144 80,116" fill="#000000"/>
  
  <!-- Middle Block connecting down -->
  <polygon points="128,88 176,116 176,172 128,144" fill="#000000"/>
  
  <!-- Bottom Block -->
  <polygon points="80,144 128,172 128,228 80,200" fill="#000000"/>
  <polygon points="128,144 176,172 128,200 80,172" fill="#000000"/>
</svg>
</g><text x="122" y="600" font-family="system-ui,-apple-system,'Segoe UI',Helvetica,Arial,sans-serif" font-size="12" fill="#8a8a8a" text-anchor="middle">64px</text><g><svg xmlns="http://www.w3.org/2000/svg" viewBox="0 0 256 256" x="180" y="548" width="32" height="32" preserveAspectRatio="xMidYMid meet">
  <!-- Top Block -->
  <polygon points="128,32 176,60 128,88 80,60" fill="#000000"/>
  <polygon points="80,60 128,88 128,144 80,116" fill="#000000"/>
  
  <!-- Middle Block connecting down -->
  <polygon points="128,88 176,116 176,172 128,144" fill="#000000"/>
  
  <!-- Bottom Block -->
  <polygon points="80,144 128,172 128,228 80,200" fill="#000000"/>
  <polygon points="128,144 176,172 128,200 80,172" fill="#000000"/>
</svg>
</g><text x="196" y="600" font-family="system-ui,-apple-system,'Segoe UI',Helvetica,Arial,sans-serif" font-size="12" fill="#8a8a8a" text-anchor="middle">32px</text><g><svg xmlns="http://www.w3.org/2000/svg" viewBox="0 0 256 256" x="238" y="564" width="16" height="16" preserveAspectRatio="xMidYMid meet">
  <!-- Top Block -->
  <polygon points="128,32 176,60 128,88 80,60" fill="#000000"/>
  <polygon points="80,60 128,88 128,144 80,116" fill="#000000"/>
  
  <!-- Middle Block connecting down -->
  <polygon points="128,88 176,116 176,172 128,144" fill="#000000"/>
  
  <!-- Bottom Block -->
  <polygon points="80,144 128,172 128,228 80,200" fill="#000000"/>
  <polygon points="128,144 176,172 128,200 80,172" fill="#000000"/>
</svg>
</g><text x="246" y="600" font-family="system-ui,-apple-system,'Segoe UI',Helvetica,Arial,sans-serif" font-size="12" fill="#8a8a8a" text-anchor="middle">16px</text><text x="90.0" y="636" font-family="system-ui,-apple-system,'Segoe UI',Helvetica,Arial,sans-serif" font-size="26" font-weight="700" fill="#161616">A · The Isometric Stack</text><text x="90.0" y="664" font-family="system-ui,-apple-system,'Segoe UI',Helvetica,Arial,sans-serif" font-size="15" font-weight="700" fill="#161616" letter-spacing="1.5">RECOMMENDED</text><text x="90.0" y="698" font-family="system-ui,-apple-system,'Segoe UI',Helvetica,Arial,sans-serif" font-size="19" fill="#555">A 3D illusion of stacked blocks forming an</text><text x="90.0" y="724" font-family="system-ui,-apple-system,'Segoe UI',Helvetica,Arial,sans-serif" font-size="19" fill="#555">&#x27;S&#x27;, representing structured data and</text><text x="90.0" y="750" font-family="system-ui,-apple-system,'Segoe UI',Helvetica,Arial,sans-serif" font-size="19" fill="#555">security.</text><rect x="562.667" y="150" width="474.667" height="630" rx="18" fill="#fff" stroke="#e4e4e0" stroke-width="1"/><g><svg xmlns="http://www.w3.org/2000/svg" viewBox="0 0 256 256" x="592.667" y="190" width="414.667" height="300" preserveAspectRatio="xMidYMid meet">
  <!-- Right angled infinite spiral S -->
  <path d="M 144,112 L 144,48 L 48,48 L 48,144 L 112,144" fill="none" stroke="#000000" stroke-width="32" stroke-linejoin="miter" stroke-linecap="square"/>
  <path d="M 112,144 L 112,208 L 208,208 L 208,112 L 144,112" fill="none" stroke="#000000" stroke-width="32" stroke-linejoin="miter" stroke-linecap="square"/>
</svg>
</g><g><svg xmlns="http://www.w3.org/2000/svg" viewBox="0 0 256 256" x="592.667" y="516" width="64" height="64" preserveAspectRatio="xMidYMid meet">
  <!-- Right angled infinite spiral S -->
  <path d="M 144,112 L 144,48 L 48,48 L 48,144 L 112,144" fill="none" stroke="#000000" stroke-width="32" stroke-linejoin="miter" stroke-linecap="square"/>
  <path d="M 112,144 L 112,208 L 208,208 L 208,112 L 144,112" fill="none" stroke="#000000" stroke-width="32" stroke-linejoin="miter" stroke-linecap="square"/>
</svg>
</g><text x="624.667" y="600" font-family="system-ui,-apple-system,'Segoe UI',Helvetica,Arial,sans-serif" font-size="12" fill="#8a8a8a" text-anchor="middle">64px</text><g><svg xmlns="http://www.w3.org/2000/svg" viewBox="0 0 256 256" x="682.667" y="548" width="32" height="32" preserveAspectRatio="xMidYMid meet">
  <!-- Right angled infinite spiral S -->
  <path d="M 144,112 L 144,48 L 48,48 L 48,144 L 112,144" fill="none" stroke="#000000" stroke-width="32" stroke-linejoin="miter" stroke-linecap="square"/>
  <path d="M 112,144 L 112,208 L 208,208 L 208,112 L 144,112" fill="none" stroke="#000000" stroke-width="32" stroke-linejoin="miter" stroke-linecap="square"/>
</svg>
</g><text x="698.667" y="600" font-family="system-ui,-apple-system,'Segoe UI',Helvetica,Arial,sans-serif" font-size="12" fill="#8a8a8a" text-anchor="middle">32px</text><g><svg xmlns="http://www.w3.org/2000/svg" viewBox="0 0 256 256" x="740.667" y="564" width="16" height="16" preserveAspectRatio="xMidYMid meet">
  <!-- Right angled infinite spiral S -->
  <path d="M 144,112 L 144,48 L 48,48 L 48,144 L 112,144" fill="none" stroke="#000000" stroke-width="32" stroke-linejoin="miter" stroke-linecap="square"/>
  <path d="M 112,144 L 112,208 L 208,208 L 208,112 L 144,112" fill="none" stroke="#000000" stroke-width="32" stroke-linejoin="miter" stroke-linecap="square"/>
</svg>
</g><text x="748.667" y="600" font-family="system-ui,-apple-system,'Segoe UI',Helvetica,Arial,sans-serif" font-size="12" fill="#8a8a8a" text-anchor="middle">16px</text><text x="592.6666666666667" y="636" font-family="system-ui,-apple-system,'Segoe UI',Helvetica,Arial,sans-serif" font-size="26" font-weight="700" fill="#161616">B · The Secure Circuit</text><text x="592.6666666666667" y="670" font-family="system-ui,-apple-system,'Segoe UI',Helvetica,Arial,sans-serif" font-size="19" fill="#555">An infinite, right-angled continuous</text><text x="592.6666666666667" y="696" font-family="system-ui,-apple-system,'Segoe UI',Helvetica,Arial,sans-serif" font-size="19" fill="#555">circuit that weaves into an &#x27;S&#x27;.</text><rect x="1065.33" y="150" width="474.667" height="630" rx="18" fill="#fff" stroke="#e4e4e0" stroke-width="1"/><g><svg xmlns="http://www.w3.org/2000/svg" viewBox="0 0 256 256" x="1095.33" y="190" width="414.667" height="300" preserveAspectRatio="xMidYMid meet">
  <!-- Minimalist Folded Ticket / Origami -->
  <polygon points="208,48 48,48 80,128 240,128" fill="#000000" opacity="0.4" />
  <polygon points="80,128 240,128 208,208 48,208" fill="#000000" />
</svg>
</g><g><svg xmlns="http://www.w3.org/2000/svg" viewBox="0 0 256 256" x="1095.33" y="516" width="64" height="64" preserveAspectRatio="xMidYMid meet">
  <!-- Minimalist Folded Ticket / Origami -->
  <polygon points="208,48 48,48 80,128 240,128" fill="#000000" opacity="0.4" />
  <polygon points="80,128 240,128 208,208 48,208" fill="#000000" />
</svg>
</g><text x="1127.33" y="600" font-family="system-ui,-apple-system,'Segoe UI',Helvetica,Arial,sans-serif" font-size="12" fill="#8a8a8a" text-anchor="middle">64px</text><g><svg xmlns="http://www.w3.org/2000/svg" viewBox="0 0 256 256" x="1185.33" y="548" width="32" height="32" preserveAspectRatio="xMidYMid meet">
  <!-- Minimalist Folded Ticket / Origami -->
  <polygon points="208,48 48,48 80,128 240,128" fill="#000000" opacity="0.4" />
  <polygon points="80,128 240,128 208,208 48,208" fill="#000000" />
</svg>
</g><text x="1201.33" y="600" font-family="system-ui,-apple-system,'Segoe UI',Helvetica,Arial,sans-serif" font-size="12" fill="#8a8a8a" text-anchor="middle">32px</text><g><svg xmlns="http://www.w3.org/2000/svg" viewBox="0 0 256 256" x="1243.33" y="564" width="16" height="16" preserveAspectRatio="xMidYMid meet">
  <!-- Minimalist Folded Ticket / Origami -->
  <polygon points="208,48 48,48 80,128 240,128" fill="#000000" opacity="0.4" />
  <polygon points="80,128 240,128 208,208 48,208" fill="#000000" />
</svg>
</g><text x="1251.33" y="600" font-family="system-ui,-apple-system,'Segoe UI',Helvetica,Arial,sans-serif" font-size="12" fill="#8a8a8a" text-anchor="middle">16px</text><text x="1095.3333333333335" y="636" font-family="system-ui,-apple-system,'Segoe UI',Helvetica,Arial,sans-serif" font-size="26" font-weight="700" fill="#161616">C · The Folded Ticket</text><text x="1095.3333333333335" y="670" font-family="system-ui,-apple-system,'Segoe UI',Helvetica,Arial,sans-serif" font-size="19" fill="#555">A minimalist abstraction of a folded</text><text x="1095.3333333333335" y="696" font-family="system-ui,-apple-system,'Segoe UI',Helvetica,Arial,sans-serif" font-size="19" fill="#555">certificate or ticket.</text></svg>
