<svg xmlns="http://www.w3.org/2000/svg" xmlns:xlink="http://www.w3.org/1999/xlink" width="1600" height="840" viewBox="0 0 1600 840"><rect width="1600" height="840" fill="#f7f7f4"/><text x="60" y="78" font-family="system-ui,-apple-system,'Segoe UI',Helvetica,Arial,sans-serif" font-size="40" font-weight="700" fill="#161616">shim — final production logo assets</text><text x="60" y="116" font-family="system-ui,-apple-system,'Segoe UI',Helvetica,Arial,sans-serif" font-size="20" fill="#6b6b6b">Concepts for review — pick a direction (or tell me what you like in each).</text><rect x="60" y="150" width="474.667" height="630" rx="18" fill="#fff" stroke="#161616" stroke-width="2"/><g><svg xmlns="http://www.w3.org/2000/svg" viewBox="0 0 256 256" x="90" y="190" width="414.667" height="300" preserveAspectRatio="xMidYMid meet">
  <!-- Perfect 1:1 isometric S (White bg version) -->
  <!-- Middle Face -->
  <polygon points="32,96 160,96 224,160 96,160" fill="#888888" />
  <!-- Top Face -->
  <polygon points="96,32 224,32 160,96 32,96" fill="#000000" />
  <!-- Bottom Face -->
  <polygon points="96,160 224,160 160,224 32,224" fill="#000000" />
</svg>
</g><g><svg xmlns="http://www.w3.org/2000/svg" viewBox="0 0 256 256" x="90" y="516" width="64" height="64" preserveAspectRatio="xMidYMid meet">
  <!-- Perfect 1:1 isometric S (White bg version) -->
  <!-- Middle Face -->
  <polygon points="32,96 160,96 224,160 96,160" fill="#888888" />
  <!-- Top Face -->
  <polygon points="96,32 224,32 160,96 32,96" fill="#000000" />
  <!-- Bottom Face -->
  <polygon points="96,160 224,160 160,224 32,224" fill="#000000" />
</svg>
</g><text x="122" y="600" font-family="system-ui,-apple-system,'Segoe UI',Helvetica,Arial,sans-serif" font-size="12" fill="#8a8a8a" text-anchor="middle">64px</text><g><svg xmlns="http://www.w3.org/2000/svg" viewBox="0 0 256 256" x="180" y="548" width="32" height="32" preserveAspectRatio="xMidYMid meet">
  <!-- Perfect 1:1 isometric S (White bg version) -->
  <!-- Middle Face -->
  <polygon points="32,96 160,96 224,160 96,160" fill="#888888" />
  <!-- Top Face -->
  <polygon points="96,32 224,32 160,96 32,96" fill="#000000" />
  <!-- Bottom Face -->
  <polygon points="96,160 224,160 160,224 32,224" fill="#000000" />
</svg>
</g><text x="196" y="600" font-family="system-ui,-apple-system,'Segoe UI',Helvetica,Arial,sans-serif" font-size="12" fill="#8a8a8a" text-anchor="middle">32px</text><g><svg xmlns="http://www.w3.org/2000/svg" viewBox="0 0 256 256" x="238" y="564" width="16" height="16" preserveAspectRatio="xMidYMid meet">
  <!-- Perfect 1:1 isometric S (White bg version) -->
  <!-- Middle Face -->
  <polygon points="32,96 160,96 224,160 96,160" fill="#888888" />
  <!-- Top Face -->
  <polygon points="96,32 224,32 160,96 32,96" fill="#000000" />
  <!-- Bottom Face -->
  <polygon points="96,160 224,160 160,224 32,224" fill="#000000" />
</svg>
</g><text x="246" y="600" font-family="system-ui,-apple-system,'Segoe UI',Helvetica,Arial,sans-serif" font-size="12" fill="#8a8a8a" text-anchor="middle">16px</text><text x="90.0" y="636" font-family="system-ui,-apple-system,'Segoe UI',Helvetica,Arial,sans-serif" font-size="26" font-weight="700" fill="#161616">A · Light Background Edition</text><text x="90.0" y="664" font-family="system-ui,-apple-system,'Segoe UI',Helvetica,Arial,sans-serif" font-size="15" font-weight="700" fill="#161616" letter-spacing="1.5">RECOMMENDED</text><text x="90.0" y="698" font-family="system-ui,-apple-system,'Segoe UI',Helvetica,Arial,sans-serif" font-size="19" fill="#555">Perfectly 1:1 squared, 45-degree angles.</text><text x="90.0" y="724" font-family="system-ui,-apple-system,'Segoe UI',Helvetica,Arial,sans-serif" font-size="19" fill="#555">Uses pure black and premium silver/grey for</text><text x="90.0" y="750" font-family="system-ui,-apple-system,'Segoe UI',Helvetica,Arial,sans-serif" font-size="19" fill="#555">stark contrast on white backgrounds.</text><rect x="562.667" y="150" width="474.667" height="630" rx="18" fill="#fff" stroke="#e4e4e0" stroke-width="1"/><g><svg xmlns="http://www.w3.org/2000/svg" viewBox="0 0 256 256" x="592.667" y="190" width="414.667" height="300" preserveAspectRatio="xMidYMid meet">
  <!-- Perfect 1:1 isometric S (Dark bg version) -->
  <!-- Middle Face -->
  <polygon points="32,96 160,96 224,160 96,160" fill="#888888" />
  <!-- Top Face -->
  <polygon points="96,32 224,32 160,96 32,96" fill="#FFFFFF" />
  <!-- Bottom Face -->
  <polygon points="96,160 224,160 160,224 32,224" fill="#FFFFFF" />
</svg>
</g><g><svg xmlns="http://www.w3.org/2000/svg" viewBox="0 0 256 256" x="592.667" y="516" width="64" height="64" preserveAspectRatio="xMidYMid meet">
  <!-- Perfect 1:1 isometric S (Dark bg version) -->
  <!-- Middle Face -->
  <polygon points="32,96 160,96 224,160 96,160" fill="#888888" />
  <!-- Top Face -->
  <polygon points="96,32 224,32 160,96 32,96" fill="#FFFFFF" />
  <!-- Bottom Face -->
  <polygon points="96,160 224,160 160,224 32,224" fill="#FFFFFF" />
</svg>
</g><text x="624.667" y="600" font-family="system-ui,-apple-system,'Segoe UI',Helvetica,Arial,sans-serif" font-size="12" fill="#8a8a8a" text-anchor="middle">64px</text><g><svg xmlns="http://www.w3.org/2000/svg" viewBox="0 0 256 256" x="682.667" y="548" width="32" height="32" preserveAspectRatio="xMidYMid meet">
  <!-- Perfect 1:1 isometric S (Dark bg version) -->
  <!-- Middle Face -->
  <polygon points="32,96 160,96 224,160 96,160" fill="#888888" />
  <!-- Top Face -->
  <polygon points="96,32 224,32 160,96 32,96" fill="#FFFFFF" />
  <!-- Bottom Face -->
  <polygon points="96,160 224,160 160,224 32,224" fill="#FFFFFF" />
</svg>
</g><text x="698.667" y="600" font-family="system-ui,-apple-system,'Segoe UI',Helvetica,Arial,sans-serif" font-size="12" fill="#8a8a8a" text-anchor="middle">32px</text><g><svg xmlns="http://www.w3.org/2000/svg" viewBox="0 0 256 256" x="740.667" y="564" width="16" height="16" preserveAspectRatio="xMidYMid meet">
  <!-- Perfect 1:1 isometric S (Dark bg version) -->
  <!-- Middle Face -->
  <polygon points="32,96 160,96 224,160 96,160" fill="#888888" />
  <!-- Top Face -->
  <polygon points="96,32 224,32 160,96 32,96" fill="#FFFFFF" />
  <!-- Bottom Face -->
  <polygon points="96,160 224,160 160,224 32,224" fill="#FFFFFF" />
</svg>
</g><text x="748.667" y="600" font-family="system-ui,-apple-system,'Segoe UI',Helvetica,Arial,sans-serif" font-size="12" fill="#8a8a8a" text-anchor="middle">16px</text><text x="592.6666666666667" y="636" font-family="system-ui,-apple-system,'Segoe UI',Helvetica,Arial,sans-serif" font-size="26" font-weight="700" fill="#161616">B · Dark Background Edition</text><text x="592.6666666666667" y="670" font-family="system-ui,-apple-system,'Segoe UI',Helvetica,Arial,sans-serif" font-size="19" fill="#555">Replaces the black faces with pure white to</text><text x="592.6666666666667" y="696" font-family="system-ui,-apple-system,'Segoe UI',Helvetica,Arial,sans-serif" font-size="19" fill="#555">pop brilliantly on dark backgrounds,</text><text x="592.6666666666667" y="722" font-family="system-ui,-apple-system,'Segoe UI',Helvetica,Arial,sans-serif" font-size="19" fill="#555">maintaining the silver middle face for</text><rect x="1065.33" y="150" width="474.667" height="630" rx="18" fill="#fff" stroke="#e4e4e0" stroke-width="1"/><g><svg xmlns="http://www.w3.org/2000/svg" viewBox="0 0 256 256" x="1095.33" y="190" width="414.667" height="300" preserveAspectRatio="xMidYMid meet">
  <!-- Perfect 1:1 isometric S (Pure monochrome mask version) -->
  <mask id="c2-gap-mask">
    <rect width="256" height="256" fill="#FFFFFF" />
    <line x1="28" y1="96" x2="164" y2="96" stroke="#000000" stroke-width="8" stroke-linecap="round" />
    <line x1="92" y1="160" x2="228" y2="160" stroke="#000000" stroke-width="8" stroke-linecap="round" />
  </mask>
  <g mask="url(#c2-gap-mask)" fill="currentColor">
    <!-- Middle Face -->
    <polygon points="32,96 160,96 224,160 96,160" />
    <!-- Top Face -->
    <polygon points="96,32 224,32 160,96 32,96" />
    <!-- Bottom Face -->
    <polygon points="96,160 224,160 160,224 32,224" />
  </g>
</svg>
</g><g><svg xmlns="http://www.w3.org/2000/svg" viewBox="0 0 256 256" x="1095.33" y="516" width="64" height="64" preserveAspectRatio="xMidYMid meet">
  <!-- Perfect 1:1 isometric S (Pure monochrome mask version) -->
  <mask id="s264-gap-mask">
    <rect width="256" height="256" fill="#FFFFFF" />
    <line x1="28" y1="96" x2="164" y2="96" stroke="#000000" stroke-width="8" stroke-linecap="round" />
    <line x1="92" y1="160" x2="228" y2="160" stroke="#000000" stroke-width="8" stroke-linecap="round" />
  </mask>
  <g mask="url(#s264-gap-mask)" fill="currentColor">
    <!-- Middle Face -->
    <polygon points="32,96 160,96 224,160 96,160" />
    <!-- Top Face -->
    <polygon points="96,32 224,32 160,96 32,96" />
    <!-- Bottom Face -->
    <polygon points="96,160 224,160 160,224 32,224" />
  </g>
</svg>
</g><text x="1127.33" y="600" font-family="system-ui,-apple-system,'Segoe UI',Helvetica,Arial,sans-serif" font-size="12" fill="#8a8a8a" text-anchor="middle">64px</text><g><svg xmlns="http://www.w3.org/2000/svg" viewBox="0 0 256 256" x="1185.33" y="548" width="32" height="32" preserveAspectRatio="xMidYMid meet">
  <!-- Perfect 1:1 isometric S (Pure monochrome mask version) -->
  <mask id="s232-gap-mask">
    <rect width="256" height="256" fill="#FFFFFF" />
    <line x1="28" y1="96" x2="164" y2="96" stroke="#000000" stroke-width="8" stroke-linecap="round" />
    <line x1="92" y1="160" x2="228" y2="160" stroke="#000000" stroke-width="8" stroke-linecap="round" />
  </mask>
  <g mask="url(#s232-gap-mask)" fill="currentColor">
    <!-- Middle Face -->
    <polygon points="32,96 160,96 224,160 96,160" />
    <!-- Top Face -->
    <polygon points="96,32 224,32 160,96 32,96" />
    <!-- Bottom Face -->
    <polygon points="96,160 224,160 160,224 32,224" />
  </g>
</svg>
</g><text x="1201.33" y="600" font-family="system-ui,-apple-system,'Segoe UI',Helvetica,Arial,sans-serif" font-size="12" fill="#8a8a8a" text-anchor="middle">32px</text><g><svg xmlns="http://www.w3.org/2000/svg" viewBox="0 0 256 256" x="1243.33" y="564" width="16" height="16" preserveAspectRatio="xMidYMid meet">
  <!-- Perfect 1:1 isometric S (Pure monochrome mask version) -->
  <mask id="s216-gap-mask">
    <rect width="256" height="256" fill="#FFFFFF" />
    <line x1="28" y1="96" x2="164" y2="96" stroke="#000000" stroke-width="8" stroke-linecap="round" />
    <line x1="92" y1="160" x2="228" y2="160" stroke="#000000" stroke-width="8" stroke-linecap="round" />
  </mask>
  <g mask="url(#s216-gap-mask)" fill="currentColor">
    <!-- Middle Face -->
    <polygon points="32,96 160,96 224,160 96,160" />
    <!-- Top Face -->
    <polygon points="96,32 224,32 160,96 32,96" />
    <!-- Bottom Face -->
    <polygon points="96,160 224,160 160,224 32,224" />
  </g>
</svg>
</g><text x="1251.33" y="600" font-family="system-ui,-apple-system,'Segoe UI',Helvetica,Arial,sans-serif" font-size="12" fill="#8a8a8a" text-anchor="middle">16px</text><text x="1095.3333333333335" y="636" font-family="system-ui,-apple-system,'Segoe UI',Helvetica,Arial,sans-serif" font-size="26" font-weight="700" fill="#161616">C · Pure Monochrome Edition</text><text x="1095.3333333333335" y="670" font-family="system-ui,-apple-system,'Segoe UI',Helvetica,Arial,sans-serif" font-size="19" fill="#555">A true 1-color SVG (uses &#x27;currentColor&#x27;).</text><text x="1095.3333333333335" y="696" font-family="system-ui,-apple-system,'Segoe UI',Helvetica,Arial,sans-serif" font-size="19" fill="#555">It uses a mathematical transparent mask to</text><text x="1095.3333333333335" y="722" font-family="system-ui,-apple-system,'Segoe UI',Helvetica,Arial,sans-serif" font-size="19" fill="#555">cut 8px horizontal gaps between the folds,</text></svg>
